<svg width="49" height="49" viewBox="0 0 49 49" fill="none" xmlns="http://www.w3.org/2000/svg">
<path fill-rule="evenodd" clip-rule="evenodd" d="M24.5 2.22627C12.1377 2.22627 2.12946 12.6162 2.12946 25.4114C2.12946 34.8065 7.52558 42.8913 15.2921 46.5279C16.1047 46.9093 16.8989 46.758 17.5195 46.2723C17.8628 45.9934 18.1395 45.6353 18.3279 45.2261C18.5164 44.817 18.6114 44.3678 18.6057 43.9139V42.6996L15.8352 42.3076C15.8146 42.3047 15.7942 42.3012 15.7739 42.297C14.2468 41.9859 13.2157 41.4256 12.4603 40.6182C11.8253 39.9386 11.4374 39.1248 11.1087 38.4345L10.9944 38.1938C10.6906 37.5326 10.3588 36.8857 10.0001 36.2551C9.72446 35.7992 9.51008 35.5649 9.29775 35.4179C8.75875 35.0451 8.24017 34.4123 8.24017 33.622C8.23832 33.3945 8.285 33.1694 8.37681 32.9631C8.46862 32.7567 8.60327 32.5743 8.771 32.4289C9.08757 32.1674 9.48211 32.0302 9.88575 32.0412C10.339 32.0412 10.7657 32.1861 11.121 32.3522C11.4844 32.5227 11.8458 32.7485 12.1826 32.9828C13.0034 33.5538 13.8119 34.2291 14.4958 35.0621C15.2084 35.9271 15.7127 36.4767 16.4722 36.5896C17.0969 36.6833 17.7339 36.6855 18.23 36.662C18.299 36.2522 18.4127 35.8519 18.569 35.469C17.963 35.3215 17.3653 35.1394 16.7784 34.9236C15.4432 34.4294 13.9548 33.6603 12.9544 32.495C11.856 31.2125 11.1761 30.0685 10.7963 28.7306C10.4268 27.4268 10.3655 26.0143 10.3655 24.2759C10.3655 21.6129 11.4701 19.3696 12.299 18.1787C11.9805 17.1361 11.7516 16.0659 11.615 14.981C11.5246 14.2968 11.5253 13.6028 11.6171 12.9187C11.7192 12.2945 11.9744 11.5276 12.6461 11.0653C13.2933 10.6158 14.0528 10.635 14.6449 10.75C15.2594 10.8714 15.8985 11.1377 16.4865 11.4424C17.444 11.9366 18.3954 12.5971 19.108 13.1573C20.337 12.7803 22.5114 12.2945 24.4775 12.2498H24.5225C26.4906 12.2945 28.567 12.7803 29.7655 13.1552C30.48 12.5971 31.4294 11.9345 32.3849 11.4424C32.9729 11.1377 33.6099 10.8714 34.2265 10.75C34.8186 10.635 35.5781 10.6158 36.2273 11.0632C36.897 11.5276 37.1543 12.2945 37.2543 12.9187C37.3584 13.5685 37.3339 14.295 37.2543 14.981C37.1183 16.0659 36.8901 17.136 36.5724 18.1787C37.4013 19.3717 38.5058 21.615 38.5058 24.2759C38.5058 26.0143 38.4446 27.4268 38.0771 28.7284C37.6953 30.0706 37.0154 31.2125 35.917 32.495C34.9166 33.6603 33.4282 34.4294 32.093 34.9236C31.3842 35.1836 30.6599 35.3949 29.9247 35.5564C30.1758 36.3489 30.2657 36.9901 30.2657 37.3587V43.9416C30.2657 44.9429 30.7128 45.7972 31.3478 46.2957C31.9643 46.7836 32.7565 46.9348 33.5691 46.5641C41.4091 42.9595 46.8685 34.8533 46.8685 25.4093C46.8685 12.6162 36.8643 2.22627 24.5 2.22627ZM19.3468 38.7946C18.816 38.8734 19.3448 38.7946 19.3448 38.7946H19.3387L19.3223 38.7988L19.2631 38.8074C18.9599 38.8445 18.6555 38.8708 18.3505 38.8862C17.6239 38.9257 16.8953 38.895 16.1741 38.7946C14.5591 38.556 13.5771 37.3629 12.9421 36.5875L12.8809 36.515C12.6733 36.2638 12.4503 36.0268 12.2133 35.8056C12.4235 36.2104 12.642 36.662 12.8768 37.1478L12.8972 37.1904L13.0013 37.4119C13.3586 38.1533 13.5934 38.6476 13.9834 39.0609C14.3631 39.4656 14.9552 39.8576 16.1516 40.1048L19.8144 40.6225C20.0702 40.6586 20.3048 40.7904 20.4745 40.9933C20.6442 41.1963 20.7376 41.4566 20.7372 41.726V43.9139C20.7372 45.6182 19.9716 47.1372 18.7976 48.0576C18.1813 48.549 17.448 48.8555 16.677 48.9441C15.906 49.0327 15.1264 48.9 14.4223 48.5603C5.92492 44.5829 0 35.7268 0 25.4114C0 11.3678 10.978 0 24.5 0C38.022 0 49 11.3678 49 25.4114C49 35.7801 42.9995 44.6596 34.4286 48.6029C33.724 48.9362 32.9458 49.0632 32.1772 48.9706C31.4087 48.8779 30.6788 48.5689 30.0656 48.0767C29.4593 47.5896 28.9693 46.9626 28.6342 46.2448C28.2991 45.527 28.128 44.7379 28.1342 43.9395V37.3566C28.1342 37.2074 28.0341 36.3467 27.4768 35.1899C27.3998 35.0295 27.3611 34.8521 27.3638 34.6728C27.3665 34.4934 27.4105 34.3174 27.4923 34.1596C27.574 34.0018 27.691 33.8669 27.8333 33.7662C27.9756 33.6656 28.139 33.6022 28.3098 33.5815C29.3565 33.4446 30.386 33.1903 31.3804 32.8231C32.5932 32.3757 33.6814 31.7621 34.3286 31.008C35.2902 29.8874 35.77 29.0267 36.0334 28.0957C36.307 27.1306 36.3764 26.0079 36.3764 24.2759C36.3764 21.8451 35.1514 19.8021 34.5879 19.1438C34.46 18.995 34.3728 18.8131 34.3354 18.617C34.298 18.421 34.3119 18.2181 34.3755 18.0296C34.7385 16.9562 34.995 15.8469 35.1412 14.7189C35.2065 14.1331 35.2106 13.6431 35.1534 13.2894C35.1406 13.1601 35.1031 13.0348 35.0432 12.9209C34.9026 12.8955 34.7585 12.902 34.6205 12.94C34.2735 13.0082 33.8304 13.1787 33.3282 13.4386C32.3278 13.9541 31.2865 14.7168 30.6413 15.2622C30.4991 15.3826 30.3293 15.4626 30.1487 15.4943C29.968 15.5261 29.7825 15.5085 29.6103 15.4433C27.9572 14.879 26.2377 14.5543 24.5 14.4782C22.444 14.5293 20.0716 15.1386 19.2611 15.4433C19.0889 15.5085 18.9034 15.5261 18.7227 15.4943C18.542 15.4626 18.3723 15.3826 18.23 15.2622C17.3957 14.5613 16.4955 13.9503 15.5432 13.4386C15.1343 13.2145 14.6992 13.0469 14.2488 12.94C14.1115 12.9023 13.9681 12.8958 13.8282 12.9209C13.7682 13.0348 13.7307 13.1601 13.718 13.2894C13.6608 13.6431 13.6649 14.1331 13.7302 14.7189C13.8773 15.8467 14.1339 16.9559 14.4958 18.0296C14.6245 18.413 14.5448 18.8391 14.2835 19.1438C13.72 19.8021 12.495 21.8451 12.495 24.2759C12.495 26.0058 12.5644 27.1306 12.838 28.0957C13.1034 29.0267 13.5812 29.8852 14.5408 31.008C15.19 31.7621 16.2762 32.3757 17.491 32.8231C18.4848 33.1901 19.5136 33.4443 20.5596 33.5815C20.7748 33.6056 20.9779 33.6975 21.1418 33.845C21.3057 33.9924 21.4227 34.1885 21.4772 34.4071C21.5318 34.6256 21.5212 34.8563 21.447 35.0685C21.3728 35.2806 21.2385 35.4642 21.0618 35.5947C20.725 35.8461 20.5024 36.2977 20.3779 36.8197C20.3136 37.0884 20.2753 37.3632 20.2635 37.6399V37.6804C20.2661 37.9505 20.1746 38.2124 20.006 38.4174C19.8374 38.6223 19.6031 38.7564 19.3468 38.7946V38.7946Z" fill="#E4C3B6"/>
</svg>
