<svg width="29" height="29" viewBox="0 0 29 29" fill="none" xmlns="http://www.w3.org/2000/svg">
<path fill-rule="evenodd" clip-rule="evenodd" d="M10.7721 10.1051H16.1574V12.7876C16.9331 11.2448 18.9225 9.85855 21.911 9.85855C27.6399 9.85855 29 12.9297 29 18.5644V29H23.2V19.8476C23.2 16.6388 22.4243 14.8292 20.4494 14.8292C17.7103 14.8292 16.5721 16.7794 16.5721 19.8462V29H10.7721V10.1051V10.1051ZM0.8265 28.7535H6.6265V9.85855H0.8265V28.7535V28.7535ZM7.45735 3.6975C7.45757 4.18365 7.36115 4.66499 7.17371 5.11355C6.98627 5.56211 6.71155 5.96894 6.3655 6.3104C5.66428 7.00731 4.71512 7.3974 3.7265 7.395C2.73962 7.39434 1.79265 7.00524 1.0904 6.31185C0.745607 5.96923 0.47181 5.56195 0.284698 5.11333C0.0975871 4.66471 0.000839741 4.18358 0 3.6975C0 2.71585 0.3915 1.77625 1.09185 1.08315C1.79348 0.38883 2.74085 -0.000433856 3.72795 3.62884e-07C4.71685 3.62884e-07 5.66515 0.39005 6.3655 1.08315C7.0644 1.77625 7.45735 2.71585 7.45735 3.6975Z" fill="#E4C3B6"/>
</svg>
