<svg width="720" height="314" viewBox="0 0 720 314" fill="none" xmlns="http://www.w3.org/2000/svg">
<g opacity="0.5">
<path d="M697.674 39.5279C697.674 191.115 567.376 314 406.645 314C245.913 314 0 117.1 0 -34.487C0 -186.074 245.913 -234.944 406.645 -234.944C567.376 -234.944 697.674 -112.059 697.674 39.5279Z" fill="#ECCFC4"/>
<path d="M697.674 31.3041C697.674 179.484 569.907 299.608 412.299 299.608C254.69 299.608 13.5548 107.133 13.5548 -41.0476C13.5548 -189.228 254.69 -237 412.299 -237C569.907 -237 697.674 -116.876 697.674 31.3041Z" fill="#E9CABE"/>
<path d="M697.674 17.9403C697.674 158.74 571.694 272.881 416.29 272.881C260.886 272.881 23.1228 89.992 23.1228 -50.8076C23.1228 -191.607 260.886 -237 416.29 -237C571.694 -237 697.674 -122.859 697.674 17.9403Z" fill="#E4C1B3"/>
<path d="M697.674 9.71643C697.674 145.974 572.886 256.433 418.951 256.433C265.016 256.433 29.5017 79.4439 29.5017 -56.8138C29.5017 -193.072 265.016 -237 418.951 -237C572.886 -237 697.674 -126.541 697.674 9.71643Z" fill="#E2BEB0"/>
<path d="M697.674 -1.59144C697.674 128.421 572.886 233.817 418.951 233.817C265.016 233.817 29.5017 64.9402 29.5017 -65.0724C29.5017 -195.085 265.016 -237 418.951 -237C572.886 -237 697.674 -131.604 697.674 -1.59144Z" fill="#DEBCAF"/>
<path d="M697.674 -8.78731C697.674 117.251 572.886 219.425 418.951 219.425C265.016 219.425 29.5017 55.7106 29.5017 -70.3278C29.5017 -196.366 265.016 -237 418.951 -237C572.886 -237 697.674 -134.826 697.674 -8.78731Z" fill="#E4C3B6"/>
<path d="M697.674 -17.0112C697.674 104.485 572.886 202.978 418.951 202.978C265.016 202.978 29.5017 45.1624 29.5017 -76.334C29.5017 -197.83 265.016 -237 418.951 -237C572.886 -237 697.674 -138.508 697.674 -17.0112Z" fill="#ECCFC4"/>
<path d="M720 -38.5989C720 70.975 593.126 159.802 436.62 159.802C280.114 159.802 40.6644 17.4736 40.6644 -92.1003C40.6644 -201.674 280.114 -237 436.62 -237C593.126 -237 720 -148.173 720 -38.5989Z" fill="#F3DAD0"/>
</g>
</svg>
