<svg width="213" height="118" viewBox="0 0 213 118" fill="none" xmlns="http://www.w3.org/2000/svg">
<path d="M213 32.5487C213 75.4267 134.704 156.769 86.7778 156.769C38.8517 156.769 0 122.009 0 79.1311C0 36.2532 38.8517 1.49378 86.7778 1.49378C134.704 1.49378 213 -10.3292 213 32.5487Z" fill="#ECCFC4"/>
<path d="M189.333 32.5968C189.333 75.538 119.737 157 77.1358 157C34.5349 157 0 122.189 0 79.248C0 36.3067 34.5349 1.49598 77.1358 1.49598C119.737 1.49598 189.333 -10.3445 189.333 32.5968Z" fill="#E9CABE"/>
<path d="M161.722 32.5968C161.722 75.538 102.275 157 65.8868 157C29.4985 157 0 122.189 0 79.248C0 36.3067 29.4985 1.49598 65.8868 1.49598C102.275 1.49598 161.722 -10.3445 161.722 32.5968Z" fill="#E4C1B3"/>
<path d="M161.722 26.5073C161.722 61.4265 108.8 127.67 76.4053 127.67C44.0109 127.67 17.75 99.3627 17.75 64.4434C17.75 29.5242 44.0109 1.21651 76.4053 1.21651C108.8 1.21651 161.722 -8.41198 161.722 26.5073Z" fill="#E2BEB0"/>
<path d="M128.194 26.5073C128.194 61.4265 87.5964 127.67 62.7459 127.67C37.8953 127.67 17.75 99.3627 17.75 64.4434C17.75 29.5242 37.8953 1.21651 62.7459 1.21651C87.5964 1.21651 128.194 -8.41198 128.194 26.5073Z" fill="#DEBCAF"/>
<path d="M128.194 41.545C128.194 71.2736 87.5964 127.67 62.7459 127.67C37.8953 127.67 17.75 103.571 17.75 73.842C17.75 44.1135 37.8953 20.0137 62.7459 20.0137C87.5964 20.0137 128.194 11.8165 128.194 41.545Z" fill="#E4C3B6"/>
<path d="M128.194 59.3171C128.194 82.9112 87.5964 127.67 62.7459 127.67C37.8953 127.67 17.75 108.544 17.75 84.9496C17.75 61.3555 37.8953 42.2287 62.7459 42.2287C87.5964 42.2287 128.194 35.723 128.194 59.3171Z" fill="#ECCFC4"/>
<path d="M112.416 59.3171C112.416 82.9112 81.9678 127.67 63.3299 127.67C44.692 127.67 29.583 108.544 29.583 84.9496C29.583 61.3555 44.692 42.2287 63.3299 42.2287C81.9678 42.2287 112.416 35.723 112.416 59.3171Z" fill="#F3DAD0"/>
</svg>
