<svg width="720" height="551" viewBox="0 0 720 551" fill="none" xmlns="http://www.w3.org/2000/svg">
<g opacity="0.5">
<path d="M697.674 276.528C697.674 428.115 567.376 551 406.645 551C245.913 551 0 354.1 0 202.513C0 50.9263 245.913 2.05591 406.645 2.05591C567.376 2.05591 697.674 124.941 697.674 276.528Z" fill="#ECCFC4"/>
<path d="M697.674 268.304C697.674 416.484 569.907 536.608 412.299 536.608C254.69 536.608 13.5548 344.133 13.5548 195.952C13.5548 47.7722 254.69 0 412.299 0C569.907 0 697.674 120.124 697.674 268.304Z" fill="#E9CABE"/>
<path d="M697.674 254.94C697.674 395.74 571.694 509.881 416.29 509.881C260.886 509.881 23.1228 326.992 23.1228 186.192C23.1228 45.3927 260.886 0 416.29 0C571.694 0 697.674 114.141 697.674 254.94Z" fill="#E4C1B3"/>
<path d="M697.674 246.716C697.674 382.974 572.886 493.433 418.951 493.433C265.016 493.433 29.5017 316.444 29.5017 180.186C29.5017 43.9284 265.016 0 418.951 0C572.886 0 697.674 110.459 697.674 246.716Z" fill="#E2BEB0"/>
<path d="M697.674 235.409C697.674 365.421 572.886 470.817 418.951 470.817C265.016 470.817 29.5017 301.94 29.5017 171.928C29.5017 41.915 265.016 0 418.951 0C572.886 0 697.674 105.396 697.674 235.409Z" fill="#DEBCAF"/>
<path d="M697.674 228.213C697.674 354.251 572.886 456.425 418.951 456.425C265.016 456.425 29.5017 292.711 29.5017 166.672C29.5017 40.6338 265.016 0 418.951 0C572.886 0 697.674 102.174 697.674 228.213Z" fill="#E4C3B6"/>
<path d="M697.674 219.989C697.674 341.485 572.886 439.978 418.951 439.978C265.016 439.978 29.5017 282.162 29.5017 160.666C29.5017 39.1695 265.016 0 418.951 0C572.886 0 697.674 98.4923 697.674 219.989Z" fill="#ECCFC4"/>
<path d="M720 198.401C720 307.975 593.126 396.802 436.62 396.802C280.114 396.802 40.6644 254.474 40.6644 144.9C40.6644 35.3258 280.114 0 436.62 0C593.126 0 720 88.8272 720 198.401Z" fill="#F3DAD0"/>
</g>
</svg>
