<svg width="364" height="322" viewBox="0 0 364 322" fill="none" xmlns="http://www.w3.org/2000/svg">
<g opacity="0.3">
<path d="M377.634 107.937C377.634 172.936 404.787 325.112 336.931 325.112C269.076 325.112 0 390.11 0 325.112C0 260.113 149.982 0 217.837 0C285.692 0 377.634 42.9385 377.634 107.937Z" fill="#ECCFC4"/>
<path d="M377.886 114.246C377.886 177.578 403.764 325.852 339.094 325.852C274.424 325.852 17.9812 389.184 17.9812 325.852C17.9812 262.52 160.921 9.0769 225.591 9.0769C290.261 9.0769 377.886 50.9144 377.886 114.246Z" fill="#E9CABE"/>
<path d="M378.063 121.457C378.063 182.884 403.048 326.699 340.608 326.699C278.168 326.699 30.5681 388.126 30.5681 326.699C30.5681 265.272 168.579 19.4507 231.019 19.4507C293.459 19.4507 378.063 60.0299 378.063 121.457Z" fill="#E4C1B3"/>
<path d="M378.365 127.766C378.365 187.527 401.82 327.44 343.203 327.44C284.587 327.44 52.1455 387.2 52.1455 327.44C52.1455 267.679 181.707 28.5273 240.324 28.5273C298.941 28.5273 378.365 68.0056 378.365 127.766Z" fill="#E2BEB0"/>
<path d="M355.518 135.878C355.518 193.496 376.297 328.392 324.37 328.392C272.443 328.392 66.5305 386.01 66.5305 328.392C66.5305 270.774 181.305 40.1978 233.232 40.1978C285.159 40.1978 355.518 78.2604 355.518 135.878Z" fill="#DEBCAF"/>
<path d="M378.743 148.497C378.743 202.781 400.286 329.873 346.448 329.873C292.61 329.873 79.1174 384.158 79.1174 329.873C79.1174 275.589 198.117 58.3516 251.955 58.3516C305.794 58.3516 378.743 94.2123 378.743 148.497Z" fill="#E4C3B6"/>
<path d="M379.02 167.425C379.02 216.71 399.161 332.096 348.827 332.096C298.493 332.096 98.8967 381.381 98.8967 332.096C98.8967 282.811 210.151 85.5825 260.485 85.5825C310.819 85.5825 379.02 118.14 379.02 167.425Z" fill="#ECCFC4"/>
<path d="M379.851 179.142C379.851 225.332 395.785 333.471 355.964 333.471C316.143 333.471 158.235 379.661 158.235 333.471C158.235 287.282 246.252 102.439 286.073 102.439C325.894 102.439 379.851 132.952 379.851 179.142Z" fill="#F3DAD0"/>
</g>
</svg>
