<svg width="716" height="316" viewBox="0 0 716 316" fill="none" xmlns="http://www.w3.org/2000/svg">
<g opacity="0.3">
<path d="M697.674 41.5279C697.674 193.115 567.376 316 406.645 316C245.913 316 0 119.1 0 -32.487C0 -184.074 245.913 -232.944 406.645 -232.944C567.376 -232.944 697.674 -110.059 697.674 41.5279Z" fill="#ECCFC4"/>
<path d="M697.674 33.3041C697.674 181.484 569.907 301.608 412.299 301.608C254.69 301.608 13.5548 109.133 13.5548 -39.0476C13.5548 -187.228 254.69 -235 412.299 -235C569.907 -235 697.674 -114.876 697.674 33.3041Z" fill="#E9CABE"/>
<path d="M697.674 19.9403C697.674 160.74 571.694 274.881 416.29 274.881C260.886 274.881 23.1228 91.992 23.1228 -48.8076C23.1228 -189.607 260.886 -235 416.29 -235C571.694 -235 697.674 -120.859 697.674 19.9403Z" fill="#E4C1B3"/>
<path d="M697.674 11.7164C697.674 147.974 572.886 258.433 418.951 258.433C265.016 258.433 29.5017 81.4439 29.5017 -54.8138C29.5017 -191.072 265.016 -235 418.951 -235C572.886 -235 697.674 -124.541 697.674 11.7164Z" fill="#E2BEB0"/>
<path d="M697.674 0.408563C697.674 130.421 572.886 235.817 418.951 235.817C265.016 235.817 29.5017 66.9402 29.5017 -63.0724C29.5017 -193.085 265.016 -235 418.951 -235C572.886 -235 697.674 -129.604 697.674 0.408563Z" fill="#DEBCAF"/>
<path d="M697.674 -6.78731C697.674 119.251 572.886 221.425 418.951 221.425C265.016 221.425 29.5017 57.7106 29.5017 -68.3278C29.5017 -194.366 265.016 -235 418.951 -235C572.886 -235 697.674 -132.826 697.674 -6.78731Z" fill="#E4C3B6"/>
<path d="M697.674 -15.0112C697.674 106.485 572.886 204.978 418.951 204.978C265.016 204.978 29.5017 47.1624 29.5017 -74.334C29.5017 -195.83 265.016 -235 418.951 -235C572.886 -235 697.674 -136.508 697.674 -15.0112Z" fill="#ECCFC4"/>
<path d="M720 -36.5989C720 72.975 593.126 161.802 436.62 161.802C280.114 161.802 40.6644 19.4736 40.6644 -90.1003C40.6644 -199.674 280.114 -235 436.62 -235C593.126 -235 720 -146.173 720 -36.5989Z" fill="#F3DAD0"/>
</g>
</svg>
