<svg width="890" height="756" viewBox="0 0 890 756" fill="none" xmlns="http://www.w3.org/2000/svg">
<g id="poteatoes">
<g id="patate4`">
<path id="Ellipse 24" d="M722.666 360.799C722.666 443.406 583.092 566 418.425 566C253.758 566 144 443.406 144 360.799C144 278.191 506.886 142 671.553 142C836.22 142 722.666 278.191 722.666 360.799Z" fill="#ECCFC4"/>
<path id="Ellipse 25" d="M723.658 353.984C723.658 428.885 587.074 540.041 425.934 540.041C264.794 540.041 157.387 428.885 157.387 353.984C157.387 279.083 512.501 155.598 673.641 155.598C834.781 155.598 723.658 279.083 723.658 353.984Z" fill="#E9CABE"/>
<path id="Ellipse 26" d="M723.658 355.184C723.658 422.137 587.074 521.499 425.934 521.499C264.794 521.499 157.387 422.137 157.387 355.184C157.387 288.231 512.501 177.849 673.641 177.849C834.781 177.849 723.658 288.231 723.658 355.184Z" fill="#E4C1B3"/>
<path id="Ellipse 27" d="M689.408 367.149C689.408 429.285 561.085 521.499 409.691 521.499C258.298 521.499 157.387 429.285 157.387 367.149C157.387 305.013 491.022 202.571 642.416 202.571C793.809 202.571 689.408 305.013 689.408 367.149Z" fill="#E2BEB0"/>
<path id="Ellipse 28" d="M691.591 359.494C691.591 418.74 571.254 506.665 429.282 506.665C287.31 506.665 192.679 418.74 192.679 359.494C192.679 300.248 505.551 202.571 647.523 202.571C789.496 202.571 691.591 300.248 691.591 359.494Z" fill="#DEBCAF"/>
<path id="Ellipse 29" d="M663.05 345.46C663.05 399.408 549.596 479.469 415.746 479.469C281.896 479.469 192.679 399.408 192.679 345.46C192.679 291.513 487.652 202.571 621.503 202.571C755.353 202.571 663.05 291.513 663.05 345.46Z" fill="#E4C3B6"/>
<path id="Ellipse 30" d="M665.383 354.434C665.383 404.769 560.467 479.469 436.688 479.469C312.909 479.469 230.404 404.769 230.404 354.434C230.404 304.099 503.183 221.114 626.962 221.114C750.741 221.114 665.383 304.099 665.383 354.434Z" fill="#ECCFC4"/>
<path id="Ellipse 31" d="M612.866 369.391C612.866 413.705 520.617 479.469 411.782 479.469C302.948 479.469 230.404 413.705 230.404 369.391C230.404 325.076 470.249 252.018 579.084 252.018C687.918 252.018 612.866 325.076 612.866 369.391Z" fill="#F3DAD0"/>
</g>
</g>
</svg>
