<svg width="739" height="591" viewBox="0 0 739 591" fill="none" xmlns="http://www.w3.org/2000/svg">
<path d="M708.081 261.092C708.081 295.064 714.591 332.722 721.467 369.973C722.038 373.064 722.611 376.153 723.183 379.236C729.517 413.371 735.735 446.885 737.185 476.839C738.766 509.522 734.645 537.623 719.107 557.55C703.623 577.406 676.512 589.5 631.247 589.5C540.532 589.5 382.947 545.994 247.968 485.518C180.499 455.289 118.782 420.866 73.9589 385.6C51.5468 367.966 33.4054 350.158 20.878 332.6C8.34712 315.037 1.5 297.82 1.5 281.332C1.5 214.325 44.4231 144.378 110.264 91.1117C176.071 37.8723 264.541 1.5 355.179 1.5C445.876 1.5 534.167 32.8514 599.761 81.0345C665.384 129.239 708.081 194.115 708.081 261.092Z" fill="white" stroke="#C6A69A" stroke-width="3"/>
</svg>
