<svg width="617" height="424" viewBox="0 0 617 424" fill="none" xmlns="http://www.w3.org/2000/svg">
<path d="M578.666 218.799C578.666 301.406 439.092 424 274.425 424C109.758 424 0 301.406 0 218.799C0 136.191 362.886 0 527.553 0C692.22 0 578.666 136.191 578.666 218.799Z" fill="#ECCFC4"/>
<path d="M579.658 211.984C579.658 286.885 443.074 398.041 281.934 398.041C120.794 398.041 13.3865 286.885 13.3865 211.984C13.3865 137.083 368.5 13.5977 529.64 13.5977C690.781 13.5977 579.658 137.083 579.658 211.984Z" fill="#E9CABE"/>
<path d="M579.658 213.184C579.658 280.137 443.074 379.499 281.934 379.499C120.794 379.499 13.3865 280.137 13.3865 213.184C13.3865 146.231 368.5 35.8485 529.64 35.8485C690.781 35.8485 579.658 146.231 579.658 213.184Z" fill="#E4C1B3"/>
<path d="M545.408 225.149C545.408 287.285 417.085 379.499 265.691 379.499C114.297 379.499 13.3865 287.285 13.3865 225.149C13.3865 163.013 347.022 60.5714 498.415 60.5714C649.809 60.5714 545.408 163.013 545.408 225.149Z" fill="#E2BEB0"/>
<path d="M547.591 217.494C547.591 276.74 427.254 364.665 285.282 364.665C143.309 364.665 48.6785 276.74 48.6785 217.494C48.6785 158.248 361.551 60.5714 503.523 60.5714C645.495 60.5714 547.591 158.248 547.591 217.494Z" fill="#DEBCAF"/>
<path d="M519.049 203.46C519.049 257.408 405.596 337.469 271.746 337.469C137.896 337.469 48.6785 257.408 48.6785 203.46C48.6785 149.513 343.652 60.5714 477.502 60.5714C611.353 60.5714 519.049 149.513 519.049 203.46Z" fill="#E4C3B6"/>
<path d="M521.383 212.434C521.383 262.769 416.467 337.469 292.688 337.469C168.909 337.469 86.4043 262.769 86.4043 212.434C86.4043 162.099 359.183 79.1136 482.962 79.1136C606.741 79.1136 521.383 162.099 521.383 212.434Z" fill="#ECCFC4"/>
<path d="M468.866 227.391C468.866 271.705 376.617 337.469 267.782 337.469C158.948 337.469 86.4043 271.705 86.4043 227.391C86.4043 183.076 326.249 110.018 435.084 110.018C543.918 110.018 468.866 183.076 468.866 227.391Z" fill="#F3DAD0"/>
</svg>
