<svg width="720" height="281" viewBox="0 0 720 281" fill="none" xmlns="http://www.w3.org/2000/svg">
<path d="M697.674 6.52805C697.674 158.115 567.376 281 406.645 281C245.913 281 0 84.0998 0 -67.4869C0 -219.074 245.913 -267.944 406.645 -267.944C567.376 -267.944 697.674 -145.059 697.674 6.52805Z" fill="#ECCFC4"/>
<path d="M697.674 -1.69589C697.674 146.484 569.907 266.608 412.299 266.608C254.69 266.608 13.5549 74.1327 13.5549 -74.0476C13.5549 -222.228 254.69 -270 412.299 -270C569.907 -270 697.674 -149.876 697.674 -1.69589Z" fill="#E9CABE"/>
<path d="M697.674 -15.0597C697.674 125.74 571.694 239.881 416.29 239.881C260.886 239.881 23.1228 56.992 23.1228 -83.8076C23.1228 -224.607 260.886 -270 416.29 -270C571.694 -270 697.674 -155.859 697.674 -15.0597Z" fill="#E4C1B3"/>
<path d="M697.674 -23.2836C697.674 112.974 572.886 223.433 418.951 223.433C265.016 223.433 29.5017 46.4439 29.5017 -89.8138C29.5017 -226.072 265.016 -270 418.951 -270C572.886 -270 697.674 -159.541 697.674 -23.2836Z" fill="#E2BEB0"/>
<path d="M697.674 -34.5914C697.674 95.4211 572.886 200.817 418.951 200.817C265.016 200.817 29.5017 31.9402 29.5017 -98.0724C29.5017 -228.085 265.016 -270 418.951 -270C572.886 -270 697.674 -164.604 697.674 -34.5914Z" fill="#DEBCAF"/>
<path d="M697.674 -41.7873C697.674 84.2511 572.886 186.425 418.951 186.425C265.016 186.425 29.5017 22.7106 29.5017 -103.328C29.5017 -229.366 265.016 -270 418.951 -270C572.886 -270 697.674 -167.826 697.674 -41.7873Z" fill="#E4C3B6"/>
<path d="M697.674 -50.0112C697.674 71.4853 572.886 169.978 418.951 169.978C265.016 169.978 29.5017 12.1624 29.5017 -109.334C29.5017 -230.83 265.016 -270 418.951 -270C572.886 -270 697.674 -171.508 697.674 -50.0112Z" fill="#ECCFC4"/>
<path d="M720 -71.5989C720 37.975 593.127 126.802 436.62 126.802C280.114 126.802 40.6646 -15.5264 40.6646 -125.1C40.6646 -234.674 280.114 -270 436.62 -270C593.127 -270 720 -181.173 720 -71.5989Z" fill="#F3DAD0"/>
</svg>
