<svg width="490" height="292" viewBox="0 0 490 292" fill="none" xmlns="http://www.w3.org/2000/svg">
<path d="M489.945 -4.51542C489.945 61.2223 396.872 292 307.255 292C217.639 292 0 61.2223 0 -4.51542C0 -70.2532 196.316 -24.2362 285.933 -24.2362C375.549 -24.2362 489.945 -70.2532 489.945 -4.51542Z" fill="#ECCFC4"/>
<path d="M490 -6.54623C490 55.1135 396.927 271.575 307.31 271.575C217.694 271.575 0.0551758 55.1135 0.0551758 -6.54623C0.0551758 -68.206 196.371 -25.0436 285.988 -25.0436C375.604 -25.0436 490 -68.206 490 -6.54623Z" fill="#E9CABE"/>
<path d="M442.739 -6.54623C442.739 55.1135 358.643 271.575 277.672 271.575C196.7 271.575 0.0551758 55.1135 0.0551758 -6.54623C0.0551758 -68.206 177.434 -25.0436 258.406 -25.0436C339.377 -25.0436 442.739 -68.206 442.739 -6.54623Z" fill="#E4C1B3"/>
<path d="M442.739 -9.84968C442.739 45.672 358.643 240.585 277.672 240.585C196.7 240.585 0.0551758 45.672 0.0551758 -9.84968C0.0551758 -65.3714 177.434 -26.5057 258.406 -26.5057C339.377 -26.5057 442.739 -65.3714 442.739 -9.84968Z" fill="#E2BEB0"/>
<path d="M420.683 -9.84968C420.683 45.672 355.741 240.585 293.211 240.585C230.682 240.585 78.8242 45.672 78.8242 -9.84968C78.8242 -65.3714 215.804 -26.5057 278.333 -26.5057C340.863 -26.5057 420.683 -65.3714 420.683 -9.84968Z" fill="#DEBCAF"/>
<path d="M395.477 -23.8216C395.477 26.6781 330.535 203.961 268.005 203.961C205.476 203.961 53.6182 26.6781 53.6182 -23.8216C53.6182 -74.3212 190.598 -38.971 253.127 -38.971C315.657 -38.971 395.477 -74.3212 395.477 -23.8216Z" fill="#E4C3B6"/>
<path d="M382.874 -25.7736C382.874 21.099 320.326 185.649 260.102 185.649C199.877 185.649 53.6182 21.099 53.6182 -25.7736C53.6182 -72.6462 185.548 -39.835 245.772 -39.835C305.997 -39.835 382.874 -72.6462 382.874 -25.7736Z" fill="#ECCFC4"/>
<path d="M382.874 -27.5755C382.874 15.949 327.808 168.745 274.787 168.745C221.767 168.745 93.0029 15.949 93.0029 -27.5755C93.0029 -71.1 209.151 -40.6325 262.172 -40.6325C315.193 -40.6325 382.874 -71.1 382.874 -27.5755Z" fill="#F3DAD0"/>
</svg>
