<svg width="471" height="255" viewBox="0 0 471 255" fill="none" xmlns="http://www.w3.org/2000/svg">
<path d="M419.068 165.28C419.068 214.831 325.257 255 209.535 255C93.8118 255 0 214.831 0 165.28C0 115.729 303.346 -140 419.069 -140C534.792 -140 419.068 115.729 419.068 165.28Z" fill="#ECCFC4"/>
<path d="M422.549 153.573C422.549 201.224 334.177 239.853 225.164 239.853C116.15 239.853 27.7773 201.224 27.7773 153.573C27.7773 105.923 313.537 -140 422.55 -140C531.564 -140 422.549 105.923 422.549 153.573Z" fill="#E9CABE"/>
<path d="M404.619 158.921C404.619 205.549 325.397 243.348 227.671 243.348C129.945 243.348 50.7227 205.549 50.7227 158.921C50.7227 112.294 306.894 -128.348 404.62 -128.348C502.346 -128.348 404.619 112.294 404.619 158.921Z" fill="#E4C1B3"/>
<path d="M393.144 170.573C393.144 217.201 321.627 255 233.407 255C145.186 255 73.6689 217.201 73.6689 170.573C73.6689 123.946 304.924 -116.696 393.145 -116.696C481.365 -116.696 393.144 123.946 393.144 170.573Z" fill="#E2BEB0"/>
<path d="M393.144 160.719C393.144 204.423 321.627 239.853 233.407 239.853C145.186 239.853 73.6689 204.423 73.6689 160.719C73.6689 117.015 304.924 -108.54 393.145 -108.54C481.365 -108.54 393.144 117.015 393.144 160.719Z" fill="#DEBCAF"/>
<path d="M364.101 166.277C364.101 206.912 299.086 239.853 218.885 239.853C138.684 239.853 73.6689 206.912 73.6689 166.277C73.6689 125.642 283.901 -84.0708 364.101 -84.0708C444.302 -84.0708 364.101 125.642 364.101 166.277Z" fill="#E4C3B6"/>
<path d="M335.057 154.725C335.057 189.513 276.544 217.714 204.363 217.714C132.183 217.714 73.6689 189.513 73.6689 154.725C73.6689 119.937 262.877 -59.6018 335.058 -59.6018C407.239 -59.6018 335.057 119.937 335.057 154.725Z" fill="#ECCFC4"/>
<path d="M337.434 143.918C337.434 176.952 283.255 203.732 216.421 203.732C149.587 203.732 95.4072 176.952 95.4072 143.918C95.4072 110.884 270.6 -59.6018 337.434 -59.6018C404.268 -59.6018 337.434 110.884 337.434 143.918Z" fill="#F3DAD0"/>
</svg>
