<svg width="26" height="31" viewBox="0 0 26 31" fill="none" xmlns="http://www.w3.org/2000/svg">
<path d="M12.7926 9.84972L13.0182 9.96375L13.2438 9.84964C14.1464 9.39307 15.2817 8.93318 16.4175 8.58828C17.5597 8.24144 18.6684 8.02137 19.5272 8.02137C21.638 8.02137 23.1118 9.12103 24.0724 10.7883C25.0447 12.4759 25.4743 14.7289 25.4319 16.9134L25.4318 16.9214L25.4319 16.9294C25.4684 19.8067 24.5781 23.0015 23.0076 25.4655C21.4339 27.9343 19.2388 29.5855 16.6855 29.5855C15.8474 29.5855 15.2184 29.3759 14.6645 29.1519C14.5783 29.117 14.4889 29.0796 14.3986 29.0418C14.2115 28.9635 14.0204 28.8835 13.846 28.8213C13.5759 28.7249 13.2812 28.6453 12.966 28.6453C12.6508 28.6453 12.3561 28.7249 12.086 28.8213C11.9116 28.8835 11.7206 28.9635 11.5335 29.0418C11.4431 29.0796 11.3537 29.117 11.2675 29.1519C10.7136 29.3759 10.0847 29.5855 9.24655 29.5855C6.7226 29.5855 4.53796 27.9205 2.96098 25.439C1.38816 22.964 0.485245 19.7675 0.500182 16.9257C0.511814 14.7032 0.967186 12.4487 1.95737 10.7683C2.93466 9.10988 4.41965 8.02137 6.56137 8.02137C8.30495 8.02197 10.958 8.92253 12.7926 9.84972ZM18.0973 0.5V1.88034C18.0973 4.20554 16.2353 6.0812 13.948 6.0812H12.5883V4.70085C12.5883 2.37566 14.4502 0.5 16.7376 0.5H18.0973Z" stroke="#64AC9B"/>
</svg>
